<svg width="302" height="95" viewBox="0 0 302 95" fill="none" xmlns="http://www.w3.org/2000/svg">
<g clip-path="url(#clip0_82_917)">
<path d="M296.63 64.735C285.707 64.735 296.63 77.8568 296.63 77.8568C296.63 77.8568 307.551 64.735 296.63 64.735ZM296.63 73.0345C294.592 73.0345 292.94 71.3855 292.94 69.3524C292.94 67.3194 294.59 65.6703 296.63 65.6703C298.67 65.6703 300.321 67.3194 300.321 69.3524C300.321 71.3855 298.668 73.0345 296.63 73.0345Z" fill="#FCA311"/>
<path d="M296.63 66.1721C294.869 66.1721 293.442 67.595 293.442 69.3501C293.442 71.1051 294.869 72.5304 296.63 72.5304C298.392 72.5304 299.815 71.1075 299.815 69.3501C299.815 67.5926 298.389 66.1721 296.63 66.1721ZM296.63 72.0192C295.154 72.0192 293.955 70.8248 293.955 69.3524C293.955 67.88 295.152 66.6857 296.63 66.6857C298.108 66.6857 299.305 67.88 299.305 69.3524C299.305 70.8248 298.108 72.0192 296.63 72.0192Z" fill="#FCA311"/>
<path d="M297.87 80.42C297.87 81.1031 297.315 81.6568 296.63 81.6568C295.946 81.6568 295.391 81.1031 295.391 80.42C295.391 79.7368 295.946 79.1832 296.63 79.1832C297.315 79.1832 297.87 79.7368 297.87 80.42Z" fill="#235099"/>
<path d="M3.54486 75.8026C4.60979 76.3044 5.86127 76.2007 6.82704 75.534L16.6972 68.7234C17.382 68.2499 18.2675 68.1745 19.0231 68.5208L23.1813 70.4314C24.2179 70.9072 25.3466 71.1452 26.4871 71.124L27.2285 71.1098C27.8189 71.1004 28.1423 70.4172 27.774 69.9555L27.3135 69.376C26.6052 68.4855 25.7031 67.7646 24.676 67.2699L20.5555 65.2816C19.8047 64.9188 19.3017 64.1885 19.2332 63.3616L18.232 51.4295C18.1329 50.2586 17.4174 49.2315 16.3548 48.7297C16.6405 53.8512 15.493 59.5405 14.9522 61.8845C14.879 62.2049 14.5248 62.3722 14.2297 62.2285L14.4162 61.2532C14.5083 60.7773 14.2155 60.3132 13.7456 60.1883L12.487 59.8515C12.317 59.8067 12.1352 59.8185 11.9746 59.8868C11.8046 59.9575 11.6157 59.9669 11.441 59.9151L10.9923 59.7808L11.4221 60.0823C11.5567 60.1766 11.6559 60.3085 11.7125 60.4616L11.8046 60.7208L11.9605 61.133L11.0868 60.7113C10.5248 60.4404 9.93213 60.2425 9.32056 60.12L6.2438 59.5075L6.54369 56.0257C6.60744 55.2789 6.14935 54.5886 5.43388 54.3554L4.35478 54.0044L3.93211 59.0481L3.07496 58.8785C2.93564 58.8503 2.85064 59.0293 2.96162 59.1188L3.63695 59.6701L0.00292969 63.2014L0.968695 63.8139C1.59916 64.2144 2.42088 64.132 2.9569 63.6137L5.48819 61.1778L7.88962 63.1378C8.37132 63.5312 8.90261 63.8634 9.46932 64.1225L10.3501 64.5277L9.93213 64.6691L9.67239 64.761C9.5189 64.8151 9.35125 64.8222 9.19305 64.7798L8.68537 64.6408L9.07498 64.9023C9.22847 65.0036 9.33945 65.1567 9.39139 65.3311C9.44098 65.4983 9.54724 65.6467 9.69128 65.748L10.7515 66.5042C11.1458 66.7846 11.6913 66.7163 12.003 66.3441L12.6405 65.5808C12.9404 65.7174 13.0349 66.0967 12.8341 66.3558C11.3654 68.264 7.69127 72.7613 3.54486 75.7955V75.8026Z" fill="#235099"/>
<path d="M39.0067 78.7191C38.8698 78.7191 38.7328 78.679 38.6124 78.5989C37.956 78.1584 37.2995 77.7037 36.6573 77.249C36.3385 77.0229 36.2653 76.5824 36.492 76.2643C36.7186 75.9463 37.1602 75.8733 37.479 76.0994C38.1118 76.5494 38.7588 76.997 39.4034 77.4281C39.7269 77.6448 39.8143 78.0853 39.5947 78.4081C39.4577 78.6107 39.2334 78.7214 39.0067 78.7214V78.7191Z" fill="#235099"/>
<path d="M92.6319 95H92.6272C92.1479 94.9976 91.6685 94.9906 91.1916 94.9811C90.0865 94.9576 88.9649 94.9152 87.8574 94.8516C87.4678 94.8304 87.1679 94.4958 87.1892 94.1071C87.2104 93.7184 87.5528 93.4216 87.9353 93.4405C89.0262 93.5017 90.1313 93.5441 91.2222 93.5677C91.6921 93.5771 92.1644 93.5842 92.6343 93.5865C93.0263 93.5865 93.3403 93.9069 93.338 94.298C93.338 94.6867 93.0192 95 92.6296 95H92.6319ZM97.3663 94.8775C96.9956 94.8775 96.6815 94.5877 96.6603 94.2132C96.6367 93.8244 96.9342 93.4876 97.3238 93.4664C98.9389 93.3698 100.504 93.2119 101.978 92.9976C102.365 92.941 102.724 93.2096 102.781 93.5959C102.837 93.9823 102.568 94.3404 102.181 94.3969C100.67 94.616 99.0641 94.7785 97.4088 94.8775C97.3946 94.8775 97.3805 94.8775 97.3663 94.8775ZM141.612 94.4958C140.023 94.4935 138.417 94.444 136.838 94.3521C136.448 94.3286 136.148 93.9941 136.172 93.6054C136.195 93.2167 136.535 92.9151 136.92 92.941C138.474 93.0305 140.054 93.08 141.614 93.0824C142.006 93.0824 142.323 93.4004 142.32 93.7915C142.32 94.1802 142.002 94.4958 141.612 94.4958ZM83.175 94.477C83.1514 94.477 83.1254 94.477 83.1018 94.4723C81.5292 94.3097 79.9377 94.1048 78.3698 93.8669C77.9825 93.808 77.7181 93.4475 77.7771 93.0612C77.8361 92.6748 78.1974 92.411 78.5847 92.4699C80.1289 92.7054 81.6992 92.9057 83.2505 93.0659C83.6402 93.1059 83.9212 93.4546 83.881 93.8409C83.8432 94.2037 83.5363 94.4746 83.1774 94.4746L83.175 94.477ZM146.346 94.371C145.973 94.371 145.659 94.0789 145.64 93.7019C145.619 93.3132 145.919 92.9787 146.309 92.9575C147.865 92.8727 149.44 92.7431 150.991 92.5735C151.381 92.5311 151.73 92.8091 151.773 93.1978C151.815 93.5865 151.537 93.9352 151.147 93.9776C149.572 94.1519 147.969 94.2838 146.387 94.3686C146.375 94.3686 146.361 94.3686 146.346 94.3686V94.371ZM132.16 93.9422C132.131 93.9422 132.106 93.9422 132.077 93.9375C130.497 93.7538 128.906 93.5229 127.35 93.252C126.965 93.1837 126.708 92.8185 126.774 92.4345C126.842 92.0505 127.211 91.7937 127.593 91.8597C129.123 92.1283 130.686 92.3544 132.24 92.5335C132.63 92.5782 132.908 92.9292 132.861 93.3179C132.819 93.6784 132.514 93.9422 132.157 93.9422H132.16ZM106.724 93.4805C106.408 93.4805 106.122 93.2685 106.039 92.9504C105.942 92.5735 106.169 92.1872 106.549 92.0906C108.096 91.6925 109.579 91.2072 110.955 90.6465C111.317 90.4981 111.73 90.6724 111.879 91.0328C112.028 91.3933 111.853 91.8079 111.492 91.9539C110.056 92.5382 108.512 93.0447 106.904 93.4593C106.845 93.4734 106.785 93.4829 106.726 93.4829L106.724 93.4805ZM155.761 93.3321C155.421 93.3321 155.121 93.0871 155.062 92.7431C154.998 92.3591 155.258 91.994 155.643 91.928C157.185 91.6689 158.734 91.365 160.25 91.0187C160.632 90.9315 161.01 91.1695 161.097 91.5511C161.185 91.9327 160.946 92.3097 160.564 92.3968C159.022 92.7478 157.444 93.0588 155.877 93.3203C155.836 93.3274 155.796 93.3297 155.758 93.3297L155.761 93.3321ZM73.8125 93.0541C73.7653 93.0541 73.718 93.0494 73.6732 93.04C72.1195 92.729 70.5539 92.3756 69.0191 91.9916C68.6389 91.8974 68.4099 91.5134 68.5043 91.1341C68.5988 90.7548 68.9837 90.5263 69.3638 90.6206C70.8774 90.9998 72.4193 91.3485 73.9518 91.6548C74.3343 91.7325 74.5846 92.1047 74.5067 92.4864C74.4382 92.8209 74.1431 93.0541 73.8125 93.0541ZM122.833 92.3073C122.778 92.3073 122.724 92.3002 122.667 92.2885C122.023 92.1353 121.373 91.9728 120.734 91.8055C119.81 91.5629 118.906 91.3037 118.049 91.0352C117.676 90.9197 117.468 90.5216 117.584 90.1494C117.699 89.7772 118.098 89.5699 118.471 89.6853C119.31 89.9468 120.193 90.2012 121.097 90.4392C121.725 90.6041 122.363 90.7643 122.996 90.915C123.376 91.0046 123.612 91.3862 123.522 91.7655C123.444 92.0906 123.154 92.3097 122.833 92.3097V92.3073ZM164.996 91.2354C164.689 91.2354 164.406 91.0352 164.316 90.7242C164.207 90.3496 164.424 89.9586 164.8 89.8479C166.304 89.4144 167.806 88.9314 169.27 88.4132C169.638 88.2836 170.044 88.4744 170.174 88.8419C170.304 89.2094 170.113 89.6146 169.744 89.7442C168.257 90.2719 166.724 90.7643 165.194 91.2048C165.128 91.2236 165.062 91.2331 164.998 91.2331L164.996 91.2354ZM64.6271 90.7525C64.5586 90.7525 64.4902 90.7431 64.4217 90.7219C62.9034 90.2648 61.3803 89.7654 59.8904 89.2377C59.522 89.1081 59.3284 88.7029 59.4606 88.3354C59.5905 87.9679 59.9966 87.7747 60.365 87.9067C61.8337 88.4273 63.3378 88.9197 64.8325 89.3696C65.208 89.4827 65.4181 89.8761 65.3048 90.2507C65.2127 90.557 64.9317 90.7525 64.6271 90.7525ZM115.449 89.8808C115.213 89.8808 114.981 89.763 114.847 89.5463C114.641 89.2141 114.743 88.7783 115.076 88.5734C116.377 87.7677 117.595 86.8254 118.698 85.77C118.981 85.499 119.428 85.5085 119.699 85.7912C119.971 86.0739 119.959 86.5215 119.678 86.79C118.505 87.9114 117.208 88.915 115.824 89.7725C115.709 89.8455 115.579 89.8785 115.451 89.8785L115.449 89.8808ZM113.81 89.4497C113.718 89.4497 113.624 89.4309 113.534 89.3932C111.978 88.7359 110.523 88.0103 109.215 87.24C108.878 87.0421 108.767 86.6086 108.965 86.2718C109.163 85.9372 109.598 85.8242 109.935 86.022C111.189 86.7618 112.587 87.4567 114.084 88.0904C114.445 88.2436 114.613 88.6582 114.46 89.0163C114.346 89.2848 114.082 89.4474 113.808 89.4474L113.81 89.4497ZM173.919 88.0716C173.643 88.0716 173.381 87.9114 173.267 87.6405C173.114 87.2824 173.282 86.8654 173.643 86.7123C174.33 86.4202 175.02 86.1163 175.695 85.8053C176.434 85.4661 177.178 85.108 177.903 84.7452C178.252 84.5709 178.677 84.7099 178.854 85.0609C179.029 85.4095 178.89 85.8336 178.54 86.0103C177.801 86.3801 177.043 86.7453 176.29 87.0916C175.603 87.4072 174.899 87.7182 174.2 88.015C174.11 88.0527 174.016 88.0716 173.924 88.0716H173.919ZM55.7015 87.591C55.6117 87.591 55.5196 87.5745 55.4323 87.5368C53.9635 86.9361 52.4948 86.2906 51.0639 85.6216C50.7097 85.4566 50.5562 85.035 50.7239 84.6816C50.8892 84.3282 51.3118 84.1774 51.666 84.3423C53.0757 85.002 54.5232 85.6357 55.9706 86.2293C56.3319 86.3778 56.5043 86.79 56.3579 87.1505C56.2445 87.4237 55.9801 87.5886 55.7015 87.5886V87.591ZM105.73 84.5921C105.565 84.5921 105.399 84.5355 105.265 84.4177C103.99 83.3058 102.885 82.0855 101.98 80.7969C101.756 80.4765 101.834 80.0359 102.155 79.8121C102.476 79.5883 102.918 79.6661 103.142 79.9865C103.98 81.1832 105.007 82.3164 106.198 83.3529C106.493 83.6097 106.523 84.0573 106.264 84.3494C106.124 84.5096 105.928 84.5921 105.73 84.5921ZM182.382 83.8311C182.139 83.8311 181.9 83.7063 181.77 83.4801C181.572 83.1432 181.688 82.7098 182.025 82.5143C183.371 81.7298 184.71 80.8935 186.002 80.0265C186.328 79.8098 186.767 79.8946 186.984 80.2197C187.201 80.5448 187.116 80.983 186.79 81.1997C185.473 82.0831 184.108 82.9359 182.739 83.7346C182.625 83.8005 182.502 83.8311 182.382 83.8311ZM47.1276 83.5791C47.0167 83.5791 46.9009 83.5532 46.7947 83.4966C45.3897 82.7522 43.9918 81.9653 42.6388 81.155C42.3035 80.9547 42.1949 80.5212 42.3956 80.1844C42.5963 79.8498 43.0308 79.7415 43.3685 79.9417C44.7002 80.738 46.0769 81.513 47.4606 82.248C47.8053 82.4318 47.9376 82.8582 47.7534 83.2045C47.6259 83.4424 47.3803 83.5791 47.1276 83.5791ZM122.224 83.3765C122.089 83.3765 121.954 83.3388 121.834 83.2587C121.508 83.042 121.418 82.6038 121.636 82.2787C122.505 80.9688 123.18 79.6025 123.64 78.2173C123.763 77.8474 124.165 77.6472 124.535 77.7697C124.906 77.8922 125.107 78.2927 124.984 78.6625C124.483 80.1655 123.754 81.645 122.816 83.0584C122.679 83.2634 122.455 83.3741 122.226 83.3741L122.224 83.3765ZM190.247 78.5636C190.035 78.5636 189.825 78.4693 189.685 78.2879C189.447 77.9793 189.506 77.5341 189.815 77.2962C191.053 76.3491 192.273 75.3503 193.447 74.3279C193.742 74.0711 194.188 74.1017 194.446 74.3962C194.703 74.6906 194.672 75.1359 194.377 75.3927C193.182 76.4339 191.938 77.4516 190.677 78.4175C190.55 78.5165 190.396 78.5636 190.247 78.5636ZM100.566 76.8391C100.254 76.8391 99.9684 76.6318 99.8834 76.3185C99.5316 75.0346 99.3521 73.7153 99.3521 72.3984C99.3521 72.0639 99.364 71.7294 99.3876 71.4019C99.4159 71.0132 99.7465 70.7188 100.143 70.747C100.533 70.7729 100.828 71.1122 100.802 71.5009C100.781 71.7954 100.771 72.0993 100.771 72.4008C100.771 73.5905 100.932 74.7849 101.251 75.9463C101.355 76.3232 101.133 76.7119 100.755 76.8132C100.693 76.8297 100.63 76.8391 100.568 76.8391H100.566ZM125.074 74.5069C124.684 74.5069 124.368 74.1936 124.365 73.8049C124.358 72.7872 124.224 71.7812 123.966 70.8106C123.848 70.363 123.692 69.9131 123.503 69.4725C123.35 69.1145 123.515 68.6975 123.874 68.5444C124.233 68.3889 124.651 68.5561 124.804 68.9142C125.022 69.416 125.199 69.9343 125.336 70.4502C125.621 71.5339 125.773 72.6576 125.78 73.7931C125.782 74.1841 125.468 74.5022 125.076 74.5045H125.071L125.074 74.5069ZM197.378 72.3443C197.197 72.3443 197.015 72.2759 196.876 72.1369C196.599 71.8613 196.602 71.4137 196.878 71.1381C197.985 70.0403 199.067 68.893 200.094 67.7292C200.354 67.4371 200.8 67.4089 201.093 67.6656C201.386 67.9248 201.414 68.37 201.157 68.6621C200.108 69.8471 199.005 71.0179 197.877 72.1369C197.74 72.2736 197.558 72.3419 197.376 72.3419L197.378 72.3443ZM101.284 67.6115C101.18 67.6115 101.074 67.5879 100.974 67.5408C100.623 67.3688 100.476 66.9471 100.648 66.5961C101.404 65.046 102.457 63.7315 103.777 62.6902C104.084 62.4475 104.53 62.4994 104.771 62.8056C105.012 63.1119 104.963 63.5571 104.656 63.7974C103.503 64.7068 102.585 65.8564 101.921 67.2133C101.798 67.4654 101.546 67.6115 101.284 67.6115ZM121.475 66.0401C121.296 66.0401 121.114 65.9718 120.974 65.8352C119.924 64.7916 118.693 63.9081 117.324 63.2108C116.974 63.0341 116.837 62.6077 117.015 62.2591C117.192 61.9104 117.619 61.7738 117.969 61.9505C119.47 62.7161 120.819 63.6843 121.976 64.8316C122.252 65.1072 122.254 65.5548 121.978 65.8305C121.839 65.9695 121.657 66.0378 121.475 66.0378V66.0401ZM203.641 65.2509C203.489 65.2509 203.338 65.2038 203.209 65.1049C202.899 64.867 202.84 64.4241 203.079 64.1131C204.033 62.8763 204.949 61.5947 205.806 60.3085C206.023 59.9834 206.462 59.8939 206.788 60.1106C207.114 60.3273 207.204 60.7655 206.987 61.0906C206.111 62.4051 205.175 63.7126 204.203 64.9753C204.063 65.1567 203.853 65.2509 203.641 65.2509ZM108.457 61.9316C108.134 61.9316 107.841 61.7102 107.768 61.3804C107.68 60.9987 107.921 60.6218 108.301 60.5346C109.869 60.1789 111.569 60.1365 113.277 60.4074C113.664 60.4687 113.926 60.8315 113.865 61.2155C113.803 61.6018 113.44 61.8633 113.055 61.8021C111.525 61.5594 110.009 61.5971 108.615 61.9104C108.564 61.9222 108.509 61.9269 108.457 61.9269V61.9316ZM208.878 57.3779C208.76 57.3779 208.639 57.3472 208.531 57.286C208.191 57.0928 208.07 56.6617 208.264 56.3225C209.034 54.9632 209.761 53.5685 210.422 52.1739C210.59 51.8205 211.013 51.6698 211.364 51.837C211.719 52.0043 211.87 52.426 211.702 52.777C211.027 54.2022 210.285 55.6299 209.497 57.0174C209.367 57.2483 209.126 57.3755 208.88 57.3755L208.878 57.3779ZM212.92 48.8381C212.835 48.8381 212.75 48.824 212.668 48.791C212.302 48.652 212.12 48.2421 212.259 47.8793C212.821 46.4116 213.32 44.9227 213.742 43.4551C213.851 43.0805 214.245 42.8638 214.618 42.9698C214.994 43.0782 215.211 43.4692 215.105 43.8438C214.673 45.3491 214.16 46.8781 213.584 48.3834C213.475 48.6661 213.206 48.8381 212.923 48.8381H212.92ZM215.516 39.7588C215.473 39.7588 215.428 39.7541 215.386 39.7471C215.001 39.6764 214.748 39.3065 214.819 38.9225C215.109 37.3724 215.317 35.8223 215.435 34.3146C215.466 33.9259 215.808 33.6361 216.198 33.6667C216.588 33.6974 216.88 34.0366 216.847 34.4277C216.725 35.9848 216.51 37.5868 216.21 39.184C216.146 39.5233 215.848 39.7612 215.513 39.7612L215.516 39.7588ZM216.236 30.3521C215.858 30.3521 215.544 30.0553 215.527 29.6737C215.461 28.107 215.294 26.5593 215.029 25.0728C214.961 24.6888 215.218 24.3213 215.603 24.253C215.988 24.1846 216.356 24.4414 216.425 24.8254C216.701 26.3755 216.876 27.9869 216.942 29.6148C216.958 30.0058 216.654 30.3333 216.264 30.3498C216.255 30.3498 216.245 30.3498 216.233 30.3498L216.236 30.3521ZM214.564 21.0797C214.269 21.0797 213.992 20.8936 213.893 20.5968C213.636 19.8311 213.345 19.0702 213.029 18.3328C212.746 17.6709 212.427 17.0089 212.082 16.3634C211.898 16.0194 212.03 15.5907 212.375 15.4069C212.72 15.2232 213.15 15.3551 213.334 15.699C213.697 16.3799 214.033 17.0795 214.333 17.7769C214.663 18.5496 214.968 19.3458 215.237 20.1468C215.362 20.5167 215.161 20.9171 214.791 21.042C214.715 21.0679 214.639 21.0797 214.566 21.0797H214.564ZM167.513 15.1007C167.44 15.1007 167.367 15.0889 167.293 15.0653C166.92 14.9452 166.717 14.5471 166.838 14.1748C167.329 12.6624 168.063 11.183 169.017 9.77421C169.237 9.45146 169.676 9.36666 170.002 9.58574C170.325 9.80483 170.41 10.243 170.191 10.5681C169.31 11.8662 168.635 13.2278 168.186 14.613C168.089 14.9122 167.81 15.103 167.513 15.103V15.1007ZM210.144 12.7708C209.931 12.7708 209.721 12.6766 209.582 12.4952C208.649 11.2843 207.61 10.1323 206.488 9.06983C206.205 8.80126 206.193 8.35366 206.462 8.07097C206.732 7.78827 207.18 7.77649 207.464 8.04505C208.639 9.15699 209.73 10.3655 210.706 11.6353C210.944 11.9439 210.885 12.3891 210.576 12.6271C210.448 12.726 210.295 12.7731 210.144 12.7731V12.7708ZM172.701 7.31475C172.509 7.31475 172.318 7.23701 172.179 7.08624C171.914 6.79883 171.933 6.35123 172.221 6.08738C173.407 4.999 174.724 4.0237 176.136 3.18504C176.472 2.98479 176.906 3.09552 177.107 3.43239C177.308 3.76692 177.197 4.20274 176.859 4.40063C175.53 5.18747 174.292 6.10623 173.18 7.12629C173.043 7.25115 172.873 7.3124 172.701 7.3124V7.31475ZM203.301 6.28762C203.161 6.28762 203.022 6.24758 202.899 6.16277C201.622 5.28405 200.278 4.50664 198.902 3.85644C198.547 3.68918 198.399 3.26749 198.566 2.91412C198.734 2.56075 199.157 2.41233 199.511 2.5796C200.956 3.26513 202.368 4.07788 203.704 4.999C204.026 5.22045 204.108 5.66098 203.884 5.98137C203.747 6.17926 203.525 6.28762 203.301 6.28762ZM180.788 2.51128C180.495 2.51128 180.219 2.32752 180.118 2.03541C179.99 1.66554 180.186 1.26506 180.557 1.13785C182.118 0.600723 183.718 0.233218 185.315 0.0471102C185.707 -5.79096e-06 186.056 0.277979 186.101 0.666686C186.146 1.05539 185.87 1.40641 185.48 1.45117C183.985 1.6255 182.484 1.96944 181.02 2.47594C180.944 2.50185 180.864 2.51599 180.788 2.51599V2.51128ZM194.776 2.26627C194.713 2.26627 194.649 2.25685 194.585 2.24036C193.095 1.82574 191.572 1.5454 190.063 1.40876C189.674 1.37343 189.386 1.02948 189.421 0.640772C189.456 0.252065 189.808 -0.0353428 190.191 -5.78957e-06C191.787 0.143698 193.395 0.438173 194.968 0.876352C195.345 0.982363 195.565 1.37107 195.459 1.748C195.371 2.06132 195.086 2.26392 194.776 2.26392V2.26627Z" fill="#235099"/>
<path d="M167.1 22.1327C166.861 22.1327 166.632 22.0126 166.5 21.8029C166.108 21.181 165.652 20.5897 165.142 20.0432C164.875 19.7581 164.892 19.3105 165.178 19.0443C165.442 18.7993 165.841 18.7946 166.11 19.016C166.146 18.6697 166.436 18.3941 166.795 18.3847C167.187 18.3729 167.513 18.6791 167.525 19.0702C167.546 19.8099 167.636 20.5544 167.791 21.2799C167.862 21.6145 167.683 21.9537 167.364 22.0809C167.277 22.1163 167.187 22.1327 167.097 22.1327H167.1Z" fill="#235099"/>
<path d="M238.706 92.3474C237.154 92.3427 235.579 92.3167 234.026 92.2673C233.634 92.2555 233.327 91.928 233.341 91.5393C233.353 91.1483 233.678 90.842 234.07 90.8561C235.61 90.9033 237.173 90.9315 238.71 90.9362C239.102 90.9362 239.419 91.2543 239.416 91.6453C239.416 92.034 239.098 92.3497 238.708 92.3497L238.706 92.3474ZM243.367 92.2955C242.984 92.2955 242.668 91.9916 242.658 91.6076C242.649 91.2166 242.958 90.8938 243.348 90.8821C244.887 90.842 246.448 90.7808 247.985 90.6983C248.377 90.6771 248.71 90.9763 248.732 91.365C248.753 91.7537 248.453 92.0882 248.063 92.1094C246.512 92.1919 244.939 92.2555 243.386 92.2955C243.379 92.2955 243.374 92.2955 243.367 92.2955ZM229.39 92.0576C229.376 92.0576 229.362 92.0576 229.348 92.0576C227.796 91.9657 226.226 91.8503 224.68 91.7137C224.29 91.6807 224.002 91.3367 224.035 90.948C224.068 90.5593 224.415 90.2719 224.802 90.3049C226.335 90.4392 227.893 90.5546 229.43 90.6465C229.82 90.67 230.118 91.0046 230.096 91.3933C230.073 91.7678 229.761 92.0576 229.39 92.0576ZM252.675 91.7937C252.311 91.7937 252 91.5158 251.969 91.1459C251.936 90.7572 252.226 90.4156 252.616 90.3826C254.151 90.2554 255.707 90.1046 257.235 89.9327C257.624 89.8903 257.974 90.1683 258.019 90.557C258.061 90.9457 257.782 91.2943 257.393 91.3391C255.851 91.5111 254.283 91.6642 252.734 91.7937C252.715 91.7937 252.694 91.7961 252.675 91.7961V91.7937ZM220.106 91.2425C220.077 91.2425 220.051 91.2425 220.023 91.2378C218.481 91.0587 216.92 90.8538 215.381 90.6323C214.994 90.5758 214.724 90.2177 214.781 89.8314C214.838 89.445 215.194 89.1765 215.584 89.233C217.109 89.4544 218.656 89.657 220.186 89.8337C220.576 89.8785 220.854 90.2295 220.807 90.6182C220.765 90.9786 220.46 91.2425 220.103 91.2425H220.106ZM261.938 90.7548C261.591 90.7548 261.289 90.5004 261.237 90.147C261.183 89.7607 261.452 89.4026 261.839 89.3484C263.367 89.1317 264.909 88.8891 266.422 88.6299C266.805 88.5639 267.173 88.8207 267.242 89.2071C267.308 89.5911 267.05 89.9586 266.663 90.0246C265.135 90.2884 263.579 90.531 262.037 90.7501C262.004 90.7548 261.969 90.7572 261.936 90.7572L261.938 90.7548ZM210.883 89.9044C210.842 89.9044 210.802 89.902 210.76 89.8926C209.225 89.6264 207.678 89.3343 206.16 89.0233C205.777 88.9456 205.53 88.571 205.607 88.1894C205.685 87.8077 206.058 87.5604 206.443 87.6381C207.947 87.9444 209.482 88.2341 211.003 88.498C211.388 88.5663 211.645 88.9315 211.579 89.3155C211.52 89.6594 211.22 89.8997 210.883 89.8997V89.9044ZM271.124 89.1741C270.793 89.1741 270.498 88.9432 270.429 88.6087C270.352 88.2271 270.599 87.8525 270.982 87.7748C272.493 87.4685 274.019 87.134 275.513 86.783C275.891 86.6934 276.276 86.929 276.366 87.3083C276.455 87.6876 276.219 88.0692 275.839 88.1588C274.33 88.5145 272.791 88.8514 271.265 89.16C271.218 89.1694 271.171 89.1741 271.124 89.1741ZM201.749 88.0457C201.695 88.0457 201.641 88.0386 201.586 88.0268C200.073 87.6735 198.545 87.2918 197.045 86.896C196.668 86.7971 196.441 86.4084 196.542 86.0315C196.642 85.6545 197.031 85.4284 197.409 85.5297C198.894 85.9231 200.41 86.3 201.912 86.651C202.292 86.7406 202.528 87.1198 202.441 87.5015C202.365 87.8266 202.073 88.048 201.751 88.048L201.749 88.0457ZM280.196 87.0421C279.884 87.0421 279.596 86.8348 279.511 86.5191C279.409 86.1422 279.634 85.7535 280.012 85.6522C281.504 85.2517 283.003 84.8253 284.472 84.3824C284.845 84.2693 285.242 84.4813 285.355 84.8536C285.468 85.2281 285.256 85.6216 284.883 85.7346C283.4 86.1822 281.884 86.6133 280.378 87.0162C280.316 87.0327 280.255 87.0397 280.193 87.0397L280.196 87.0421ZM192.738 85.6616C192.672 85.6616 192.604 85.6522 192.538 85.6333C191.045 85.1904 189.541 84.7216 188.07 84.2363C187.699 84.1138 187.496 83.7157 187.619 83.3435C187.742 82.9736 188.143 82.771 188.514 82.8935C189.973 83.3741 191.463 83.8382 192.942 84.2764C193.317 84.3871 193.529 84.7805 193.419 85.1551C193.326 85.4614 193.045 85.6616 192.738 85.6616ZM183.888 82.7498C183.808 82.7498 183.725 82.7357 183.645 82.7074C182.179 82.175 180.708 81.6167 179.27 81.0442C178.906 80.9005 178.729 80.4883 178.873 80.1255C179.017 79.7627 179.43 79.586 179.794 79.7297C181.218 80.2951 182.677 80.8511 184.129 81.3764C184.498 81.5107 184.686 81.9159 184.552 82.281C184.448 82.5684 184.176 82.7475 183.886 82.7475L183.888 82.7498ZM175.232 79.308C175.137 79.308 175.041 79.2892 174.949 79.2491C173.518 78.6272 172.084 77.9793 170.684 77.3174C170.33 77.1501 170.179 76.7284 170.346 76.3774C170.514 76.024 170.937 75.8733 171.291 76.0405C172.677 76.6954 174.096 77.3386 175.513 77.9534C175.872 78.1089 176.035 78.5259 175.879 78.884C175.763 79.1502 175.503 79.308 175.23 79.308H175.232ZM166.809 75.3291C166.701 75.3291 166.59 75.3032 166.486 75.2513C165.1 74.5399 163.709 73.8001 162.356 73.0486C162.013 72.8602 161.891 72.4291 162.08 72.0875C162.268 71.7459 162.701 71.6234 163.043 71.8119C164.384 72.5539 165.758 73.2889 167.133 73.991C167.48 74.17 167.619 74.5964 167.44 74.9427C167.315 75.1877 167.067 75.3267 166.809 75.3267V75.3291ZM158.663 70.813C158.538 70.813 158.412 70.78 158.299 70.7117C157.756 70.3866 157.213 70.0568 156.675 69.7223C155.867 69.2228 155.076 68.7234 154.325 68.2334C153.997 68.0214 153.905 67.5832 154.117 67.2557C154.33 66.9283 154.769 66.8364 155.097 67.0484C155.839 67.5314 156.62 68.0261 157.418 68.5184C157.952 68.8483 158.488 69.1734 159.026 69.4961C159.362 69.6963 159.47 70.1322 159.27 70.4667C159.137 70.6881 158.901 70.8106 158.66 70.8106L158.663 70.813ZM150.863 65.7245C150.719 65.7245 150.575 65.6821 150.45 65.5902C149.137 64.6455 147.881 63.6867 146.717 62.7373C146.415 62.49 146.368 62.0447 146.615 61.7432C146.863 61.4416 147.31 61.3945 147.612 61.6419C148.755 62.5724 149.987 63.5147 151.279 64.4429C151.595 64.6714 151.669 65.112 151.44 65.43C151.3 65.6208 151.085 65.7245 150.863 65.7245ZM143.662 59.8326C143.487 59.8326 143.312 59.769 143.175 59.6394C141.999 58.5275 140.896 57.3849 139.895 56.2494C139.638 55.955 139.666 55.5097 139.961 55.2529C140.254 54.9962 140.703 55.0244 140.96 55.3189C141.933 56.4238 143.005 57.5334 144.15 58.617C144.434 58.8856 144.445 59.3332 144.176 59.6159C144.037 59.7619 143.85 59.8373 143.662 59.8373V59.8326ZM137.548 52.8382C137.324 52.8382 137.104 52.7322 136.967 52.5367C136.042 51.2174 135.213 49.8534 134.502 48.4871C134.323 48.1408 134.457 47.7144 134.804 47.533C135.151 47.3516 135.579 47.4882 135.761 47.8345C136.445 49.1467 137.241 50.4565 138.131 51.7263C138.356 52.0467 138.278 52.4872 137.957 52.711C137.834 52.7982 137.692 52.8382 137.553 52.8382H137.548ZM133.321 44.5882C133.024 44.5882 132.745 44.3974 132.649 44.1006C132.155 42.5858 131.789 41.0263 131.558 39.462C131.501 39.0757 131.768 38.7176 132.155 38.661C132.542 38.6045 132.901 38.8707 132.958 39.2571C133.175 40.7436 133.525 42.2254 133.992 43.6624C134.113 44.0346 133.909 44.4327 133.539 44.5529C133.466 44.5764 133.392 44.5882 133.319 44.5882H133.321ZM131.992 35.4289C131.992 35.4289 131.976 35.4289 131.968 35.4289C131.576 35.4171 131.27 35.0896 131.284 34.7009C131.336 33.0825 131.541 31.4876 131.893 29.9611C131.98 29.5818 132.363 29.3438 132.743 29.431C133.125 29.5182 133.362 29.8975 133.274 30.2791C132.944 31.7185 132.75 33.2215 132.7 34.7481C132.689 35.1297 132.375 35.4312 131.992 35.4312V35.4289ZM134.096 26.4344C133.994 26.4344 133.893 26.4132 133.794 26.3661C133.44 26.1989 133.288 25.7795 133.456 25.4261C134.148 23.9632 135 22.5921 135.994 21.3459C136.238 21.0396 136.684 20.9902 136.991 21.2328C137.298 21.4755 137.347 21.9207 137.104 22.227C136.179 23.386 135.383 24.6676 134.738 26.0292C134.618 26.286 134.363 26.4344 134.096 26.4344ZM139.862 19.2375C139.647 19.2375 139.435 19.1409 139.296 18.9571C139.059 18.6462 139.123 18.2033 139.435 17.9677C140.684 17.0301 142.094 16.2291 143.631 15.5907C143.992 15.4399 144.408 15.6095 144.556 15.97C144.705 16.3304 144.538 16.745 144.176 16.8934C142.75 17.4871 141.44 18.2292 140.287 19.0961C140.16 19.1927 140.011 19.2375 139.862 19.2375ZM161.973 17.4612C161.86 17.4612 161.744 17.4329 161.638 17.3764C160.375 16.6979 158.967 16.1726 157.459 15.8121C157.078 15.7226 156.842 15.341 156.934 14.9617C157.024 14.5824 157.409 14.3492 157.787 14.4387C159.416 14.8274 160.939 15.3975 162.309 16.1325C162.653 16.3186 162.781 16.745 162.597 17.089C162.469 17.3269 162.224 17.4612 161.973 17.4612ZM148.368 15.6354C148.032 15.6354 147.735 15.3975 147.671 15.0559C147.6 14.6719 147.855 14.3044 148.24 14.2337C149.813 13.944 151.421 13.8121 153.019 13.8427C153.411 13.8497 153.721 14.1725 153.714 14.5612C153.706 14.9476 153.39 15.2538 153.005 15.2538C153 15.2538 152.996 15.2538 152.991 15.2538C151.487 15.2279 149.973 15.3504 148.493 15.6213C148.45 15.6284 148.405 15.6331 148.363 15.6331L148.368 15.6354Z" fill="#235099"/>
<path d="M289.145 84.34C288.849 84.34 288.573 84.1539 288.474 83.8594C288.349 83.4896 288.547 83.0891 288.918 82.9642C289.659 82.7145 290.406 82.4554 291.138 82.1962C291.506 82.0643 291.912 82.2575 292.042 82.625C292.174 82.9925 291.98 83.3977 291.612 83.5273C290.873 83.7911 290.117 84.0502 289.371 84.3023C289.296 84.3282 289.22 84.34 289.145 84.34Z" fill="#235099"/>
</g>
<defs>
<clipPath id="clip0_82_917">
<rect width="301.484" height="95" fill="white"/>
</clipPath>
</defs>
</svg>
