<svg width="79" height="110" viewBox="0 0 79 110" fill="none" xmlns="http://www.w3.org/2000/svg">
<g clip-path="url(#clip0_137_498)">
<path d="M27.844 2.63025C27.844 1.17856 29.0307 0 30.4924 0H48.5076C49.9693 0 51.156 1.17856 51.156 2.63025C51.156 4.08194 49.9693 5.2605 48.5076 5.2605H30.4924C29.0307 5.2605 27.844 4.08194 27.844 2.63025ZM16.4555 106.404C16.4555 108.342 18.0378 109.913 19.9892 109.913C21.9407 109.913 23.5229 108.342 23.5229 106.404V103.773H16.4593V106.404H16.4555ZM55.4846 106.404C55.4846 108.342 57.0669 109.913 59.0183 109.913C60.9698 109.913 62.552 108.342 62.552 106.404V103.773H55.4884V106.404H55.4846ZM67.9769 22.9464H66.2063V11.1009C66.2063 5.46254 61.5876 0.875503 55.9103 0.875503H53.7554V4.385H55.9103C59.6399 4.385 62.6763 7.40062 62.6763 11.1047V22.9502H16.3274V11.1009C16.3274 7.39688 19.3639 4.38126 23.0935 4.38126H25.2484V0.875503H23.0935C17.4162 0.875503 12.7975 5.46254 12.7975 11.1009V22.9464H11.0268C4.93515 22.9464 0 27.8515 0 33.8977V90.4874C0 96.5336 4.93515 101.435 11.0231 101.435H35.5368L33.5402 77.179L13.7732 80.7259L15.3329 76.8085L33.2651 65.543L34.4895 53.9145L39.5038 48.8299L44.518 53.9145L45.7424 65.543L63.6747 76.8085L65.2343 80.7259L45.4674 77.179L43.4707 101.435H67.9845C74.0724 101.435 79.0075 96.5336 79.0075 90.4874V33.8977C79.0075 27.8515 74.0724 22.9502 67.9845 22.9502L67.9769 22.9464Z" fill="white"/>
</g>
<defs>
<clipPath id="clip0_137_498">
<rect width="79" height="109.913" fill="white"/>
</clipPath>
</defs>
</svg>
